<svg width="854" height="346" viewBox="0 0 854 346" fill="none" xmlns="http://www.w3.org/2000/svg">
<path fill-rule="evenodd" clip-rule="evenodd" d="M129.201 123.888C138.895 123.888 143.113 119.127 143.113 106.819V103.069C143.113 90.7607 138.895 86 129.201 86C119.482 86 115.289 90.7607 115.289 103.069V106.819C115.289 119.127 119.482 123.888 129.201 123.888ZM129.201 116.957C125.353 116.957 124.366 114.342 124.366 107.287V102.601C124.366 95.546 125.353 92.9314 129.201 92.9314C133.025 92.9314 134.011 95.546 134.011 102.601V107.287C134.011 114.342 133.025 116.957 129.201 116.957ZM86 123.074H94.6087V110.025H97.6181C106.251 110.025 111.037 107.065 111.037 98.5801V98.2594C111.037 89.7987 106.227 86.814 97.6181 86.814H86V123.074ZM94.6087 103.341V93.5234H97.1494C100.381 93.5234 102.058 94.7567 102.058 98.2347V98.6047C102.058 102.107 100.381 103.341 97.1494 103.341H94.6087ZM161.527 123.074H150.945L145.641 86.814H154.151L157.383 112.196L161.403 86.814H169.568L173.613 112.221L176.845 86.814H185.33L180.027 123.074H169.445L165.473 97.3961L161.527 123.074ZM189.681 123.074H211.586V115.921H198.29V108.422H209.883V101.269H198.29V93.9674H211.438V86.814H189.681V123.074ZM224.745 123.074H216.137V86.814H227.631C236.24 86.814 241.149 89.7987 241.149 98.1361V98.4567C241.149 103.316 238.978 106.498 235.303 108.175L243.196 123.074H233.872L226.965 109.655H224.745V123.074ZM224.745 93.5234V103.341H227.261C230.517 103.341 232.17 102.107 232.17 98.6047V98.2347C232.17 94.7567 230.517 93.5234 227.261 93.5234H224.745ZM246.109 123.074H268.013V115.921H254.717V108.422H266.311V101.269H254.717V93.9674H267.865V86.814H246.109V123.074ZM283.664 123.074H272.564V86.814H283.664C294.122 86.814 298.637 91.3774 298.637 103.834V106.054C298.637 118.486 294.122 123.074 283.664 123.074ZM281.172 93.77V116.118H283.392C287.808 116.118 289.534 113.923 289.534 106.054V103.834C289.534 95.9654 287.808 93.77 283.392 93.77H281.172ZM307.604 123.074H320.899C328.669 123.074 333.282 119.991 333.282 112.788V112.517C333.282 107.855 330.791 105.363 327.115 104.155V104.105C329.903 102.601 331.728 99.8874 331.728 96.1627V95.916C331.728 89.626 327.781 86.814 320.455 86.814H307.604V123.074ZM316.213 101.441V93.2274H319.493C322.009 93.2274 323.317 94.51 323.317 97.1247V97.5194C323.317 100.208 322.009 101.441 319.493 101.441H316.213ZM316.213 116.661V107.83H319.789C323.021 107.83 324.328 109.187 324.328 112.023V112.393C324.328 115.304 323.021 116.661 319.789 116.661H316.213ZM352.851 123.074H344.242V109.384L333.586 86.814H342.491L348.781 101.121H348.83L355.071 86.814H363.507L352.851 109.384V123.074ZM179.591 191.767C182.955 191.767 186.242 190.77 189.039 188.901C191.835 187.033 194.015 184.377 195.302 181.27C196.589 178.163 196.926 174.743 196.27 171.445C195.613 168.146 193.994 165.116 191.616 162.738C189.237 160.36 186.207 158.74 182.909 158.084C179.61 157.428 176.191 157.765 173.084 159.052C169.977 160.339 167.321 162.518 165.452 165.315C163.584 168.111 162.586 171.399 162.586 174.762C162.586 176.995 163.026 179.207 163.88 181.27C164.735 183.333 165.988 185.208 167.567 186.787C169.146 188.366 171.02 189.619 173.084 190.473C175.147 191.328 177.358 191.767 179.591 191.767ZM127.45 268.353C119.252 268.353 111.238 265.922 104.422 261.368C97.6051 256.813 92.2924 250.34 89.1552 242.766C86.018 235.192 85.1971 226.858 86.7965 218.817C88.3958 210.777 92.3435 203.391 98.1404 197.594C103.937 191.798 111.323 187.85 119.363 186.251C127.404 184.651 135.738 185.472 143.312 188.609C150.886 191.747 157.359 197.059 161.914 203.876C166.468 210.692 168.899 218.706 168.899 226.904C168.9 232.347 167.828 237.737 165.745 242.766C163.662 247.795 160.608 252.365 156.759 256.214C152.91 260.062 148.341 263.116 143.312 265.199C138.283 267.282 132.893 268.354 127.45 268.353ZM721.701 259.837L696.136 201.113H713.255L730.714 243.229L750.892 201.113H767.728L727.936 282H710.818L721.701 259.837ZM659.451 247.678C660.962 247.334 662.42 246.791 663.787 246.063C665.109 245.359 666.337 244.493 667.443 243.484C668.548 242.472 669.502 241.308 670.277 240.026C671.09 238.68 671.719 237.231 672.148 235.718C672.613 234.068 672.842 232.36 672.828 230.645C672.844 228.912 672.615 227.185 672.148 225.515C671.719 224.002 671.09 222.554 670.277 221.207C669.498 219.92 668.544 218.747 667.443 217.721C666.351 216.703 665.12 215.845 663.787 215.17C662.41 214.477 660.954 213.954 659.451 213.612C657.871 213.249 656.254 213.069 654.633 213.073C653.021 213.068 651.414 213.248 649.843 213.612C648.358 213.954 646.921 214.478 645.563 215.17C644.236 215.854 643.007 216.712 641.907 217.721C640.793 218.742 639.829 219.915 639.045 221.207C638.234 222.551 637.614 224.001 637.203 225.515C636.755 227.188 636.536 228.913 636.551 230.645C636.538 232.358 636.757 234.064 637.203 235.718C637.614 237.233 638.234 238.683 639.045 240.026C639.824 241.313 640.789 242.478 641.907 243.484C643.02 244.485 644.247 245.35 645.563 246.063C646.911 246.791 648.351 247.334 649.843 247.678C651.413 248.042 653.021 248.223 654.633 248.217C656.254 248.222 657.871 248.041 659.451 247.678ZM642.191 260.829C639.566 260.161 637.041 259.151 634.68 257.825C630.082 255.239 626.286 251.433 623.712 246.828C622.386 244.447 621.376 241.903 620.708 239.261C619.31 233.583 619.31 227.651 620.708 221.973C621.372 219.338 622.383 216.803 623.712 214.434C626.298 209.845 630.091 206.052 634.68 203.466C637.041 202.139 639.566 201.129 642.191 200.461C644.997 199.75 647.883 199.397 650.778 199.413C652.341 199.409 653.903 199.504 655.454 199.696C656.881 199.873 658.293 200.157 659.677 200.546C660.961 200.911 662.22 201.355 663.447 201.878C664.596 202.367 665.704 202.945 666.763 203.607C667.758 204.23 668.689 204.952 669.54 205.761C670.337 206.517 671.076 207.332 671.751 208.199V201.113H688.019V260.177H671.751V253.092C670.71 254.397 669.521 255.576 668.208 256.606C666.756 257.746 665.166 258.698 663.475 259.44C661.595 260.266 659.627 260.875 657.608 261.254C655.357 261.68 653.07 261.889 650.778 261.878C647.883 261.893 644.997 261.541 642.191 260.829ZM583.131 216.077C585.461 216.12 587.787 215.853 590.046 215.284C591.808 214.839 593.452 214.017 594.865 212.875C596.14 211.811 597.117 210.434 597.699 208.879C598.333 207.116 598.64 205.253 598.606 203.38C598.642 201.517 598.335 199.663 597.699 197.91C597.115 196.372 596.138 195.014 594.865 193.971C593.445 192.846 591.803 192.034 590.046 191.59C587.786 191.022 585.461 190.755 583.131 190.797H567.146V216.077L583.131 216.077ZM550.311 176.853H584.718C590.122 176.853 594.808 177.514 598.776 178.837C602.743 180.159 606.012 181.992 608.582 184.335C611.138 186.658 613.109 189.552 614.335 192.781C615.622 196.185 616.266 199.798 616.234 203.437C616.275 207.068 615.63 210.673 614.335 214.065C613.089 217.267 611.12 220.138 608.582 222.454C606.012 224.817 602.743 226.659 598.776 227.981C594.808 229.305 590.122 229.966 584.718 229.965H567.146V260.177H550.311V176.853ZM478.021 201.113H494.176V208.198C495.173 206.823 496.355 205.593 497.69 204.542C499.103 203.434 500.644 202.501 502.281 201.765C504.085 200.958 505.979 200.368 507.922 200.008C510.08 199.602 512.272 199.403 514.468 199.413C517.888 199.364 521.289 199.94 524.501 201.113C527.364 202.168 529.957 203.842 532.097 206.016C534.247 208.269 535.872 210.969 536.858 213.924C537.996 217.32 538.552 220.885 538.502 224.467V260.177H522.347V228.661C522.386 226.357 522.061 224.062 521.384 221.859C520.823 220.041 519.887 218.361 518.635 216.928C517.431 215.597 515.924 214.576 514.242 213.952C512.335 213.262 510.318 212.926 508.29 212.96C506.253 212.928 504.227 213.264 502.31 213.952C500.617 214.571 499.099 215.592 497.889 216.928C496.636 218.361 495.7 220.041 495.139 221.859C494.462 224.062 494.137 226.357 494.176 228.661V260.177H478.021V201.113ZM438.268 247.508C439.81 247.136 441.303 246.584 442.717 245.864C444.063 245.177 445.296 244.288 446.373 243.229C447.441 242.184 448.365 241.002 449.123 239.714C449.895 238.388 450.468 236.956 450.823 235.463C451.209 233.848 451.399 232.192 451.39 230.532C451.4 228.88 451.21 227.234 450.823 225.628C450.108 222.67 448.565 219.976 446.373 217.863C445.281 216.813 444.051 215.917 442.717 215.199C441.315 214.446 439.819 213.884 438.268 213.527C436.585 213.14 434.864 212.95 433.138 212.96C431.431 212.952 429.728 213.142 428.065 213.527C426.522 213.881 425.034 214.443 423.643 215.199C422.321 215.922 421.101 216.818 420.016 217.863C418.947 218.892 418.039 220.077 417.323 221.377C416.592 222.713 416.021 224.131 415.623 225.6C415.195 227.209 414.985 228.867 414.999 230.532C414.99 232.196 415.199 233.854 415.623 235.463C416.011 236.945 416.582 238.374 417.323 239.714C418.048 241.009 418.955 242.192 420.016 243.229C421.087 244.283 422.31 245.172 423.643 245.865C425.046 246.587 426.531 247.139 428.065 247.509C429.725 247.912 431.429 248.112 433.138 248.104C434.866 248.114 436.588 247.914 438.268 247.508ZM423.615 260.801C420.7 260.122 417.875 259.104 415.197 257.768C412.679 256.512 410.343 254.92 408.254 253.035C406.229 251.203 404.474 249.095 403.039 246.772C401.585 244.407 400.469 241.85 399.723 239.176C398.174 233.517 398.174 227.546 399.723 221.888C400.465 219.221 401.582 216.673 403.039 214.32C404.484 212.005 406.238 209.897 408.254 208.057C410.337 206.157 412.674 204.554 415.197 203.296C417.875 201.96 420.7 200.942 423.615 200.263C429.921 198.827 436.468 198.827 442.774 200.263C445.672 200.936 448.479 201.954 451.135 203.296C453.647 204.573 455.981 206.174 458.078 208.057C460.125 209.891 461.909 211.998 463.378 214.32C464.852 216.668 465.978 219.217 466.723 221.888C468.272 227.546 468.272 233.517 466.723 239.176C465.975 241.854 464.849 244.412 463.378 246.772C461.919 249.101 460.134 251.21 458.078 253.035C455.976 254.903 453.642 256.494 451.135 257.768C448.488 259.107 445.691 260.125 442.802 260.801C436.487 262.236 429.93 262.236 423.615 260.801ZM360.577 247.508C362.119 247.136 363.612 246.584 365.026 245.864C366.372 245.177 367.605 244.288 368.682 243.229C369.75 242.183 370.674 241.002 371.432 239.714C372.204 238.389 372.777 236.956 373.132 235.463C373.518 233.848 373.708 232.192 373.699 230.532C373.709 228.88 373.519 227.234 373.132 225.628C372.417 222.669 370.874 219.976 368.682 217.863C367.59 216.813 366.36 215.917 365.026 215.199C363.624 214.446 362.128 213.884 360.577 213.527C358.894 213.14 357.173 212.95 355.447 212.96C353.74 212.952 352.037 213.142 350.374 213.527C348.831 213.881 347.343 214.443 345.952 215.199C344.63 215.922 343.41 216.818 342.325 217.863C341.256 218.892 340.348 220.077 339.632 221.377C338.902 222.713 338.331 224.131 337.932 225.6C337.504 227.209 337.294 228.867 337.308 230.532C337.299 232.196 337.508 233.854 337.932 235.463C338.32 236.945 338.892 238.373 339.632 239.714C340.357 241.009 341.264 242.192 342.325 243.229C343.396 244.283 344.619 245.171 345.952 245.864C347.355 246.587 348.84 247.139 350.374 247.508C352.034 247.912 353.738 248.111 355.447 248.104C357.175 248.114 358.897 247.914 360.577 247.508ZM345.924 260.801C343.009 260.122 340.184 259.105 337.507 257.768C334.988 256.513 332.652 254.92 330.563 253.035C328.538 251.203 326.783 249.095 325.348 246.772C323.894 244.407 322.778 241.85 322.032 239.176C320.483 233.518 320.483 227.546 322.032 221.888C322.775 219.221 323.891 216.674 325.348 214.321C326.793 212.005 328.548 209.898 330.563 208.057C332.647 206.157 334.983 204.555 337.507 203.296C340.185 201.96 343.01 200.942 345.924 200.263C352.23 198.827 358.777 198.827 365.083 200.263C367.981 200.936 370.788 201.954 373.444 203.296C375.956 204.573 378.291 206.174 380.388 208.057C382.434 209.891 384.218 211.999 385.687 214.321C387.161 216.669 388.288 219.217 389.032 221.888C390.581 227.546 390.581 233.518 389.032 239.176C388.284 241.854 387.158 244.412 385.687 246.772C384.228 249.101 382.444 251.211 380.388 253.035C378.285 254.904 375.951 256.494 373.444 257.768C370.797 259.107 368 260.125 365.111 260.801C358.796 262.236 352.239 262.236 345.924 260.801ZM218.42 176.853H235.425L264.503 221.292L293.695 176.853H310.701V260.177H293.865V203.04L269.718 239.884H259.402L235.255 203.04V260.177H218.42V176.853Z" fill="white"/>
</svg>
